<svg width="90" height="673" viewBox="0 0 502 673" fill="none" xmlns="http://www.w3.org/2000/svg">
<path d="M7.75854 30.5029C7.75854 42.7715 8.8136 54.9411 9.17928 67.1912C9.51283 78.3651 8.02213 90.1651 10.1821 101.205C14.2084 121.784 18.7923 141.848 20.5451 162.882C23.1101 193.661 33.3317 223.809 33.3317 254.644" stroke="black" stroke-width="3" stroke-linecap="round"/>
<path d="M7.75854 25.9899C42.5285 16.0557 74.1258 -1.76937 111.556 2.25534C134.808 4.75564 153.597 22.3648 176.074 25.8228C183.231 26.9239 186.697 31.0866 192.872 35.0158C202.591 41.2011 213.261 45.6603 222.707 52.3153C232.437 59.1704 242.601 64.9743 251.957 72.3727C261.69 80.0682 270.613 89.5174 280.874 96.358C300.868 109.687 318.729 125.147 339.374 137.643C349.595 143.829 360.659 144.84 371.466 149.343C382.928 154.119 394.673 159.953 406.567 163.467C417.917 166.82 430.153 166.79 441.751 168.899C452.655 170.882 464.025 172.775 475.096 173.328C479.85 173.566 499.666 175.192 499.666 179.429" stroke="black" stroke-width="3" stroke-linecap="round"/>
<path d="M12.2715 47.0502C28.9354 47.0502 39.6232 34.7225 54.392 30.5028C60.6871 28.7042 64.0566 25.9899 70.9394 25.9899C78.0801 25.9899 83.3896 21.477 90.4954 21.477C113.358 21.477 131.635 35.2547 151.42 44.6266C158.214 47.8449 165.035 52.6087 172.396 54.5717C180.322 56.6853 186.373 56.3623 193.624 60.5054C203.968 66.4166 218.213 69.8056 225.883 79.3927C233.855 89.3585 246.731 92.0327 256.721 98.9487C265.423 104.973 273.401 107.739 280.121 115.58C289.297 126.285 302.197 134.376 313.467 142.49C318.056 145.794 322.738 149.57 328.176 152.017C332.013 153.744 340.901 158.168 344.723 158.369C353.737 158.843 359.417 164.386 368.792 164.386C378.005 164.386 381.228 171.994 388.348 175.752C394.044 178.758 400.731 179.938 406.4 182.772C411.921 185.533 413.559 186.951 420.273 186.951C425.897 186.951 431.393 186.57 436.82 188.121C441.517 189.463 447.542 188.317 452.364 188.455C457.782 188.61 463.168 193.895 468.41 195.642C476.844 198.454 484.76 194.472 493.649 194.472C502.635 194.472 490.641 175.909 490.641 171.908" stroke="black" stroke-width="3" stroke-linecap="round"/>
<path d="M61.9136 33.5115C62.5024 60.5962 63.4179 87.6006 63.4179 114.744" stroke="black" stroke-width="3" stroke-linecap="round"/>
<path d="M78.461 28.9985C78.461 58.8861 76.9567 88.1497 76.9567 117.753" stroke="black" stroke-width="3" stroke-linecap="round"/>
<path d="M122.086 32.0071C122.543 50.7706 125.094 68.9736 125.094 87.6664C125.094 100.831 123.59 114.177 123.59 126.778" stroke="black" stroke-width="3" stroke-linecap="round"/>
<path d="M144.65 44.0416C144.65 54.0703 144.65 64.099 144.65 74.1277C144.65 80.3681 143.324 88.7351 145.82 94.3522C150.756 105.457 147.659 123.803 147.659 135.804" stroke="black" stroke-width="3" stroke-linecap="round"/>
<path d="M27.3146 111.735C39.173 111.735 59.1498 108.232 70.1037 113.24C74.9077 115.436 77.7038 116.248 82.9739 116.248C88.704 116.248 93.2113 119.925 98.8527 120.678C105.672 121.587 114.336 123.439 121.25 122.182C126.196 121.283 130.938 119.486 136.21 121.513C142.825 124.058 151.972 126.947 158.858 128.199C163.888 129.114 168.247 132.638 173.232 134.3" stroke="black" stroke-width="3" stroke-linecap="round"/>
<path d="M25.8102 114.744C25.8102 118.728 26.4441 123.334 25.7267 127.28C25.5898 128.033 23.4767 129.228 25.1417 129.703C27.7902 130.46 34.6329 128.283 37.8447 128.283C48.2437 128.283 57.4423 130.885 67.2622 133.13C71.5143 134.102 76.2618 135.804 80.6338 135.804C84.4302 135.804 88.2043 141.038 92.7518 141.738C100.812 142.978 110.181 146.334 118.325 146.334C122.197 146.334 126.069 146.334 129.942 146.334C135.932 146.334 138.008 150.506 143.146 152.017C146.227 152.923 151.276 151.034 153.76 153.104C155.004 154.141 163.075 156.865 164.958 156.865C167.358 156.865 173.535 159.929 172.062 158.035C170.717 156.305 171.581 151.646 170.558 149.343C168.045 143.689 168.719 134.575 168.719 128.283" stroke="black" stroke-width="3" stroke-linecap="round"/>
<path d="M31.8275 182.438C31.8275 189.352 29.1791 195.509 28.8189 201.994C28.3698 210.076 42.0841 206.507 48.0406 206.507C69.2783 206.507 90.6115 208.011 112.224 208.011C117.372 208.011 120.925 210.208 125.763 211.354C133.441 213.172 141.405 211.965 148.913 214.78C161.233 219.4 175.549 215.539 187.941 220.045C195.752 222.886 205.666 224.128 213.848 224.558C223.133 225.047 233.934 228.208 242.514 231.578C277.142 245.182 314.882 248.627 352.245 248.627C362.09 248.627 380.705 244.766 389.016 250.466C395.625 254.997 404.714 254.644 412.5 254.644C420.883 254.644 428.908 259.099 437.321 257.569C445.508 256.081 449.678 256.535 457.546 259.157" stroke="black" stroke-width="3" stroke-linecap="round"/>
<path d="M28.8188 182.438C50.0741 182.438 71.3294 182.438 92.5847 182.438C101.275 182.438 112.013 180.795 120.581 182.772C126.895 184.229 130.959 188.455 137.714 188.455C142.462 188.455 140.236 190.804 143.815 191.798C162.58 197.01 182.286 199.423 200.644 204.668C208.774 206.991 220.698 209.199 229.226 209.515C235.733 209.756 241.786 212.28 248.113 212.524C256.403 212.843 262.04 216.126 269.842 218.207C282.678 221.63 297.43 218.246 310.793 221.215C321.686 223.636 331.856 223.613 343.052 224.893C352.161 225.934 359.429 228.623 368.04 231.244C371.391 232.264 376.037 234.989 379.322 235.088C393.006 235.503 405.955 239.601 419.938 239.601C430.472 239.601 440.866 242.61 451.529 242.61C459.254 242.61 463.431 259.223 457.546 262.166" stroke="black" stroke-width="3" stroke-linecap="round"/>
<path d="M45.3662 128.283C45.3662 138.423 45.3662 148.563 45.3662 158.703C45.3662 163.078 47.4948 180.621 43.8619 182.438" stroke="black" stroke-width="3" stroke-linecap="round"/>
<path d="M156.685 153.856C161.321 167.766 159.693 182.906 159.693 197.481" stroke="black" stroke-width="3" stroke-linecap="round"/>
<path d="M39.3489 208.011C39.3489 225.164 38.9365 243.73 36.006 260.662C33.3075 276.253 33.3317 290.956 33.3317 306.961C33.3317 323.427 34.8574 340.529 31.4931 356.603C29.7907 364.737 30.716 372.755 30.3231 381.006C29.8888 390.126 27.3145 398.613 27.3145 408.083C27.3145 424.261 25.8102 440.103 25.8102 456.221C25.8102 460.897 25.9164 465.587 25.8102 470.261C25.6802 475.981 21.9979 480.754 21.3808 486.307C20.9779 489.934 20.499 493.661 19.4587 497.172C17.9106 502.397 19.4031 508.203 17.4529 513.218C12.6747 525.505 15.5746 540.824 13.6922 554.001C13.1857 557.546 9.4008 559.774 9.26283 563.361C9.105 567.465 7.78902 571.159 7.00637 575.229C3.24649 594.78 3.24561 615.374 3.24561 635.234" stroke="black" stroke-width="3" stroke-linecap="round"/>
<path d="M158.189 217.037C158.189 237.609 159.693 258.08 159.693 278.713C159.693 282.903 159.98 286.831 158.189 290.748C152.74 302.668 153.353 319.648 151.42 332.534C147.109 361.273 154.123 390.3 149.832 419.115C146.493 441.532 149.44 464.941 144.316 487.143C140.927 501.829 140.137 520.2 140.137 535.281C140.137 544.289 140.625 552.514 143.48 561.188C147.387 573.059 148.3 584.986 149.08 597.459C149.832 609.494 147.659 621.182 147.659 632.977C147.659 637.543 145.395 640.88 144.734 645.179C143.981 650.07 146.155 654.429 146.155 659.303" stroke="black" stroke-width="3" stroke-linecap="round"/>
<path d="M3.24567 587.096C3.24567 596.947 4.74998 606.669 4.74998 616.43C4.74998 622.788 3.24567 628.968 3.24567 635.234C3.24567 640.248 3.24567 645.262 3.24567 650.277C3.24567 654.682 1.15603 658.715 1.82494 663.063C3.19794 671.988 10.5182 671.337 18.2887 671.337C29.0974 671.337 39.9062 671.337 50.7149 671.337C72.4072 671.337 94.7533 669.833 116.821 669.833C123.953 669.833 130.954 671.136 137.797 671.337C138.376 671.354 148.478 671.464 147.325 670.167C144.308 666.773 138.642 659.298 144.65 656.294" stroke="black" stroke-width="3" stroke-linecap="round"/>
<path d="M6.25427 584.087C15.5994 583.09 24.7161 582.583 34.0839 582.583C40.025 582.583 44.6799 585.592 50.6313 585.592C61.3007 585.592 71.9701 585.592 82.6396 585.592C92.2783 585.592 101.917 585.592 111.556 585.592C122.384 585.592 131.279 583.151 141.642 581.079" stroke="black" stroke-width="3" stroke-linecap="round"/>
<path d="M150.668 408.084C156.039 396.744 167.186 387.75 172.062 377.997C175.071 371.98 183.006 367.06 188.86 364.459C193.651 362.329 197.91 358.174 202.483 355.767C210.588 351.501 217.597 349.244 226.802 347.828C237.919 346.118 248.478 344.903 259.73 344.903C269.274 344.903 278.233 348.454 287.559 350.586C304.256 354.402 316.617 373.96 328.176 385.519C333.978 391.321 342.808 392.842 347.732 400.228C350.077 403.745 350.855 406.975 352.579 410.424C353.07 411.407 355.372 416.602 356.005 417.109C357.912 418.635 356.693 425.109 357.51 427.723C359.329 433.546 357.821 439.749 359.766 445.691C362.519 454.103 365.783 461.487 365.783 470.596C365.783 479.547 363.117 488.618 365.031 497.423C366.856 505.819 367.288 516.975 367.288 525.419C367.288 531.349 364.279 535.925 364.279 541.215C364.279 547.483 364.279 553.75 364.279 560.018" stroke="black" stroke-width="3" stroke-linecap="round"/>
<path d="M358.262 248.627C358.262 257.542 358.262 266.456 358.262 275.37C358.262 288.081 364.279 297.632 364.279 310.304C364.279 330.914 362.775 351.629 362.775 371.98C362.775 391.794 364.279 410.934 364.279 430.648C364.279 439.453 365.783 448.299 365.783 456.89C365.783 464.817 368.792 468.898 368.792 477.282" stroke="black" stroke-width="3" stroke-linecap="round"/>
<path d="M444.007 257.653C444.259 271.771 448.237 285.207 448.52 299.272C448.866 316.457 451.58 333.174 453.033 350.251C454.28 364.906 456.405 378.561 458.214 393.04C460.512 411.424 462.059 430.816 462.059 449.285C462.059 463.832 466.572 477.843 466.572 492.325C466.572 502.676 468.077 513.354 470.75 523.246C473.652 533.984 471.371 544.636 472.923 555.505C475.997 577.019 472.589 599.82 472.589 621.695" stroke="black" stroke-width="3" stroke-linecap="round"/>
<path d="M364.279 635.234C382.085 635.234 399.457 630.721 416.93 630.721C421.581 630.721 425.814 632.225 430.468 632.225C435.363 632.225 439.127 629.9 443.924 629.3C451.142 628.398 458.513 627.712 465.82 627.712C471.919 627.712 481.91 627.108 471.085 621.695" stroke="black" stroke-width="3" stroke-linecap="round"/>
<path d="M362.775 555.505C375.58 560.115 394.234 562.151 407.57 558.514C417.087 555.918 425.066 552.497 435.065 552.497C443.049 552.497 451.93 551.369 459.802 552.58C464.119 553.245 468.162 555.505 472.589 555.505" stroke="black" stroke-width="3" stroke-linecap="round"/>
<path d="M313.133 474.273C324.036 474.273 337.918 472.041 347.732 476.947C353.177 479.67 360.351 477.282 365.783 477.282" stroke="black" stroke-width="3" stroke-linecap="round"/>
<path d="M311.628 477.282C311.628 487.282 311.628 497.283 311.628 507.284C311.628 513.1 314.251 516.95 315.389 522.411C317.852 534.233 314.906 546.671 316.893 558.598C320.341 579.284 325.167 599.085 325.167 620.191" stroke="black" stroke-width="3" stroke-linecap="round"/>
<path d="M364.279 560.018V641.251" stroke="black" stroke-width="3" stroke-linecap="round"/>
<path d="M320.654 609.66C323.299 615.17 329.143 619.362 333.691 622.698C340.487 627.681 345.816 634.395 352.913 638.911C355.657 640.657 358.666 643.577 361.605 644.594C367.387 646.595 365.783 646.122 365.783 641.251" stroke="black" stroke-width="3" stroke-linecap="round"/>
<path d="M147.659 418.614C152.07 418.124 153.886 414.305 157.855 412.931C161.237 411.76 165.973 412.596 169.471 412.596C173.108 412.596 176.784 412.457 180.419 412.596C183.165 412.702 184.834 415.185 187.607 415.689C191.45 416.387 194.482 416.972 198.471 417.109C203.86 417.295 207.073 421.53 211.508 423.879C214.584 425.507 224.317 428.577 225.883 431.317C226.735 432.808 229.412 433.184 230.73 435.161C232.436 437.721 238.338 442.822 240.926 444.855C246.953 449.591 249.344 454.258 253.796 459.982C259.273 467.024 259.434 485.148 260.398 493.829C261.877 507.137 257.473 520.977 257.473 534.445C257.473 543.467 252.956 570.213 262.32 573.891C268.421 576.288 275.838 581.177 280.372 585.257C281.976 586.701 284.975 584.678 286.724 586.427C288.33 588.033 290.045 588.915 291.738 590.439C296.764 594.963 300.826 595.15 306.447 597.96C311.412 600.443 315.826 606.442 320.654 609.66" stroke="black" stroke-width="3" stroke-linecap="round"/>
<path d="M150.668 301.278C166.224 301.278 184.394 301.598 199.641 304.37C223.967 308.793 248.47 311.478 272.683 316.321C283.337 318.452 292.444 320.834 303.355 320.834C311.433 320.834 319.512 320.834 327.591 320.834C336.913 320.834 351.501 321.958 359.766 317.825" stroke="black" stroke-width="3" stroke-linecap="round"/>
<path d="M364.279 159.873C364.279 185.518 365.783 210.954 365.783 236.593" stroke="black" stroke-width="3" stroke-linecap="round"/>
<path d="M373.305 170.403C373.305 184.64 374.809 199.667 374.809 213.36C374.809 220.666 376.313 226.578 376.313 233.584" stroke="black" stroke-width="3" stroke-linecap="round"/>
<path d="M407.904 186.951C407.904 204.476 406.4 222.354 406.4 239.601" stroke="black" stroke-width="3" stroke-linecap="round"/>
<path d="M416.93 188.455C416.93 204.538 418.434 220.523 418.434 236.593" stroke="black" stroke-width="3" stroke-linecap="round"/>
<path d="M144.65 74.1277C154.897 74.1277 177.591 69.6283 185.935 77.9721C191.671 83.7081 198.493 89.4655 205.157 94.3523C210.41 98.2043 216.554 98.6787 221.704 102.71C227.925 107.578 233.683 113.154 240.174 117.669C244.514 120.688 246.918 124.01 250.787 127.363C255.43 131.387 262.175 133.192 266.666 137.309C278.965 148.583 300.479 160.054 316.81 164.72C332.215 169.122 347.641 182.438 364.279 182.438" stroke="black" stroke-width="3" stroke-linecap="round"/>
<path d="M143.146 90.675C159.915 90.675 183.738 95.7673 196.465 107.222C200.86 111.177 207.762 112.335 212.01 116.583C216.338 120.911 220.072 124.972 224.211 129.703C230.876 137.32 236.94 144.31 247.612 146.251C251.012 146.869 257.015 149.572 259.73 151.683C264.488 155.384 271.661 156.113 276.361 159.873C281.457 163.95 289.993 164.513 295.917 167.395C302.284 170.492 308.699 173.969 315.222 177.089C325.168 181.846 333.55 188.133 343.219 192.968C345.633 194.175 348.499 193.686 350.74 194.806C352.617 195.745 352.19 198.388 354.501 198.901C358.888 199.876 362.688 200.489 367.288 200.489" stroke="black" stroke-width="3" stroke-linecap="round"/>
<path d="M221.37 129.787C213.951 139.185 205.252 147.409 196.8 155.862C193.214 159.448 187.606 162.063 184.598 165.89C180.858 170.651 176.636 173.99 173.232 179.095C169.362 184.901 167.314 196.198 161.95 200.489C158.906 202.924 159.364 205.99 161.198 200.489" stroke="black" stroke-width="3" stroke-linecap="round"/>
<path d="M182.258 200.489C184.637 194.304 191.885 183.016 197.301 178.76C199.912 176.709 200.351 174.039 202.483 171.908C204.11 170.28 207.437 171.262 207.831 168.899C209.576 158.43 231.9 155.011 231.9 143.326" stroke="black" stroke-width="3" stroke-linecap="round"/>
<path d="M231.9 144.83C231.9 167.513 233.404 189.996 233.404 212.524" stroke="black" stroke-width="3" stroke-linecap="round"/>
<path d="M243.934 147.839C243.934 157.137 243.166 173.021 246.943 181.518C251.812 192.474 249.952 206.359 249.952 218.541" stroke="black" stroke-width="3" stroke-linecap="round"/>
<path d="M266.499 214.028C271.838 208.528 274.509 201.747 279.704 196.311C283.645 192.186 288.757 188.918 292.072 184.276C294.674 180.634 299.528 178.057 301.098 174.916" stroke="black" stroke-width="3" stroke-linecap="round"/>
<path d="M313.133 174.916C318.049 185.295 321.341 198.991 330.85 205.838C337.199 210.409 340.321 221.587 349.236 224.558" stroke="black" stroke-width="3" stroke-linecap="round"/>
<path d="M283.047 224.558C286.685 222.941 291.621 210.716 293.911 206.841C296.212 202.947 296.709 198.393 298.758 194.806C302.252 188.692 307.896 180.096 310.124 173.412" stroke="black" stroke-width="3" stroke-linecap="round"/>
<path d="M302.602 188.455C306.78 189.383 314.453 204.964 316.141 208.763C318.948 215.079 325.927 219.317 328.176 226.063" stroke="black" stroke-width="3" stroke-linecap="round"/>
<path d="M183.762 260.662C183.062 270.812 177.745 280.673 177.745 290.748" stroke="black" stroke-width="3" stroke-linecap="round"/>
<path d="M182.258 259.157C187.117 261.182 192.944 271.605 195.463 276.373C197.604 280.427 199.201 290.475 202.148 293.422C203.101 294.375 203.309 290.922 203.402 289.578C203.822 283.492 205.737 278.134 207.497 272.362C209.277 266.523 209.336 260.664 209.336 254.644" stroke="black" stroke-width="3" stroke-linecap="round"/>
<path d="M218.361 260.662C238.442 261.204 258.346 266.679 278.534 266.679" stroke="black" stroke-width="3" stroke-linecap="round"/>
<path d="M255.969 266.679C255.969 274.423 255.969 282.168 255.969 289.912C255.969 294.261 252.96 297.913 252.96 302.782" stroke="black" stroke-width="3" stroke-linecap="round"/>
<path d="M284.551 266.679C284.864 280.758 286.055 294.676 286.055 308.799" stroke="black" stroke-width="3" stroke-linecap="round"/>
<path d="M284.551 268.183C297.129 268.183 304.202 268.171 302.686 281.053C301.523 290.937 289.468 298.269 280.038 298.269" stroke="black" stroke-width="3" stroke-linecap="round"/>
<path d="M317.646 275.705C317.646 283.976 316.775 293.008 317.646 301.278C318.267 307.187 331.87 310.304 336.533 310.304C353.973 310.304 344.723 284.241 344.723 274.2" stroke="black" stroke-width="3" stroke-linecap="round"/>
</svg>
